<mxfile host="Electron" modified="2023-11-09T23:51:13.312Z" agent="Mozilla/5.0 (Windows NT 10.0; Win64; x64) AppleWebKit/537.36 (KHTML, like Gecko) draw.io/22.0.3 Chrome/114.0.5735.289 Electron/25.8.4 Safari/537.36" etag="4qiT51Xwd7LcUw6xH3Th" version="22.0.3" type="device">
  <diagram name="Page-1" id="GdskZkkvaNk0RXC9AVJg">
    <mxGraphModel dx="1036" dy="606" grid="1" gridSize="10" guides="1" tooltips="1" connect="1" arrows="1" fold="1" page="1" pageScale="1" pageWidth="850" pageHeight="1100" math="0" shadow="0">
      <root>
        <mxCell id="0" />
        <mxCell id="1" parent="0" />
        <mxCell id="_Hx0DVdfl_cADfPcGA3N-21" value="" style="whiteSpace=wrap;html=1;aspect=fixed;" parent="1" vertex="1">
          <mxGeometry x="70" y="250" width="120" height="120" as="geometry" />
        </mxCell>
        <mxCell id="jGMnsHMGLgrMGACoU0F0-5" value="" style="image;aspect=fixed;html=1;points=[];align=center;fontSize=12;image=img/lib/azure2/compute/Function_Apps.svg;" parent="1" vertex="1">
          <mxGeometry x="50" y="570" width="68" height="60" as="geometry" />
        </mxCell>
        <mxCell id="_Hx0DVdfl_cADfPcGA3N-2" value="" style="sketch=0;html=1;dashed=0;whitespace=wrap;fillColor=#2875E2;strokeColor=#ffffff;points=[[0.005,0.63,0],[0.1,0.2,0],[0.9,0.2,0],[0.5,0,0],[0.995,0.63,0],[0.72,0.99,0],[0.5,1,0],[0.28,0.99,0]];verticalLabelPosition=bottom;align=center;verticalAlign=top;shape=mxgraph.kubernetes.icon;prIcon=api" parent="1" vertex="1">
          <mxGeometry x="410" y="82" width="50" height="48" as="geometry" />
        </mxCell>
        <mxCell id="_Hx0DVdfl_cADfPcGA3N-9" value="&lt;font style=&quot;font-size: 26px;&quot;&gt;Data Marketplace&lt;/font&gt;" style="text;html=1;strokeColor=none;fillColor=none;align=center;verticalAlign=middle;whiteSpace=wrap;rounded=0;fontSize=19;" parent="1" vertex="1">
          <mxGeometry x="280" y="10" width="290" height="30" as="geometry" />
        </mxCell>
        <mxCell id="_Hx0DVdfl_cADfPcGA3N-10" value="" style="group" parent="1" vertex="1" connectable="0">
          <mxGeometry x="30" y="50" width="220" height="118" as="geometry" />
        </mxCell>
        <mxCell id="_Hx0DVdfl_cADfPcGA3N-5" value="" style="rounded=0;whiteSpace=wrap;html=1;" parent="_Hx0DVdfl_cADfPcGA3N-10" vertex="1">
          <mxGeometry y="30" width="220" height="87" as="geometry" />
        </mxCell>
        <mxCell id="Qay-sZCd45axe-OAiqx2-1" value="" style="shape=image;verticalLabelPosition=bottom;verticalAlign=top;imageAspect=0;aspect=fixed;image=data:image/png,iVBORw0KGgoAAAANSUhEUgAAAJAAAACQCAYAAADnRuK4AAAACXBIWXMAAAsTAAALEwEAmpwYAAAJNUlEQVR4nO2dW2xcRxnHD/erQFRQwQOIgoCHInEtvPSFS22nTeTQOIlje107tnd92Zu9jlM78c7M+WZjhzRpItTEhlIp7UOL07RJWy6lVRzi7Mym+KFNKUjwAKRFIFGlFEGbqkkPGlQQpYSu1+c7cy7fT5pX+3z/+TznzP52jh2HIAiCIAiCIAiCIAiCIAiCIAiCIAiCIAiCIAiCIAiCIAiCIAiCIAiCiBWe571JKLkktPSwxuiRHd51Hf0oo72cP2Eru007ck+g1NXZ740fL6PNhxlcwUO+BeHW3C8JJS9hXvDmnXmUBmru7vd6b9l+rRMwPfuK65q6BlBqSlWKqM0jlHzJPe1+xtdAhJJ3YF705E+Y15zCCbxtYuScEzA3jg4/i1FLS0/a2/GowF19tNzteyCsyq7kCv6CeeFbbx1Hu5WlZkeLTkB07SreglVHem4Ct3kU/Gl2efb9KMFwXSlhXjxbAm9tehAl+HVDgxduYuydDjJ9e9kVN6TTL2PU0Jod8lgVUBvIVbIbLZz55fm3CQ2/wixg5PDNaKtQhyjc7SDTXs6fwLr+4j07UJtHKPg589ibUQNiCr6JWoSW3obxLMoEtPSmX0l9Z+zTWNn07M9f09yN8xxnNhm4zSMvMSW/4gSB0PJBzGK2PVD2mjpxJmLTZO4sVi5tEyPnMK65KTXg3fxjjt1AdzhBAafhk1zDBcyCUrtGcW5lnQNe396xjX5nktpdGjY/G+OazeYCM2uu4a9yWX7ECRKhYBazqOlF17t+awZlQtYXhp5nzL97PWPs7euGh17AuNa1AxmvfAr3wdlsjvzKov7QFtl7hZZ/wCwsc2g7zirU0e+ZrbZfWXSIwt1Y12k2FZgZCw2/OfCjA+9wbMBrkEL9y6hKb31uCGVirh/IXBw8WLpytRn07yldtaY3fQnjGm8sjZjPZZAbSK5xbHoyruAUZoFjCzvRVqH2cn5xtRlsmsydjazv0vCAYxum5BexPVl7SD1Zz7eLrU1dOM1tNhGoK4+SL7Ezu9A+0lgRXMP3MYudeoR7WJ+vtI2PPN1o3d9C8l1retLezhO4vstsgpywYDyZ0PI5zIK33lpCu5X17i6OrrTmlCzsw7oes3nA9l2sxt7nhAmhYQyz6PISeOsy4fBkUfddvAYpJ2ywRfZWoeFJzMKzhyfRVqEuUbyn3lrNwzfWdRR/gOu7uAZlNj9OGAnCk7VtQ/JkPQN1ebLePYWvYj2PtcfJdzWKUPI4ZggTD+J5so1T2SffqD7z0I3xu5uD8F1a3u6EHfbYzCeEli/G0ZPh+q5S/HxXo3AlZ+LmyfB9l4u8+sCYExWMJ+MansEMJDM3gbMKmQ/xZGHff9dkHrKxfl/28CTu6qPkr635rkZxdaULNxQIzJOR77JADDzZyX/VYh6uUX5PZ7+37dg07q1LyeNOVHGr7hfQPdk0ricj32UZruF7mA00+TD3WhA92friyHmMn72mF993mc2ME3UC8WT78c6TYY0M8vkuoeQfQ+e7GoUrdzSqngxjtGaH8c936UqXExei7sn8HsUk+65GEdXKN6Lqyfwc7dPkuxqGKziG2UDbf1j2sL4h6JfvmnwY13eZTYsTV4LwZN1YnsyHsXU/7vkuoeTz7Az7sBNnhIZdUfVkqxk3pPF9l9msOHGHLbN3Cw2/xwwyM4d3nizEvuuX5uUXThLgCjpxwwRvfX7YetNc9+rYUMqin+9iClqcRL13UcufRdWThc13cQXHnKRhPBnXcBEz2C1lHE+2ktEdwPkuV7ufcpKIUPK7mOFO/RTvPFn9vsvFXX20rDhJpXKq8iFsT9Zn0ZNl5sl3oSOULMbRk7UG4LvMZsRJOsaTcS3PYgaduzN4TzZKvis44ubJtpTxfZeoimsCnKLwI7S8HzP07Q+xQDxZSze+7zKbD9vzlUxPNoPvyfrId9lDKJDonqwvHWnfJZQM7I37kSMITzY4j+fJsneS77KOqyodUfRkG8h3JceTlY5O+/qChqbOgX++9AH11qXl/bbnJjIE4cnaffRk3TPku0IHVzCP7clabkpHwncJBdL2fEQOptgVXMGzYfdkg/PI7zPU8Ix5WYXt+YgkXLsFbE+2dnBwVb6LVyXy/++qdNieh8gShCczW++w+i6hZTV257uChtXg62H0ZOYhXGBeF/ku/+Aa7guTJzO+awr7fJeCeR8jTDZQg6vQPdnsaHh8l5bPmS/b2c49VnAlAXPSpk/W58nWZgbxz3dpt2A779ixV+19F9fyd7Y9We4u8l2RhVdhi01PtmE8gP/fVZXNtnOONVzDSRueLAjfxTXcZzvf2MNOy8/jnycrvN53zeL6Lq7hQmLPdwWN0HIuSE8WyPkuJcF2rokhEE92YDxQ37Xn8T3vsZ1rohBa5oPwZK25IXTfxauwxXaeiWNhYeEt2J4sf9eUN3aEfFdsCcKTof//rjPyy7ZzTDRCyaPWG0E3POZs55d42NLsx4SSfw9BM3grGVzDefJdIUEocG03hFj5yNvOjQjQk/k6FDyVmPcZRgVXV9qtN4auc5DvSqYn82f1kUdt50RcBlatfFZo+bL1JtGXHS+aL8fRBIYYruFQeFcfcG3nQ4TAkzV463qafFdE4Apy1htGv3aYh3zbuRAr8GRCwRO2m0a8OriG03S+K2KExpMp8l2RhSu413YDcQ2HbOdANAg8Bh+16cm4hvNsmX2QJjDCcC2FtQZSkLNdPxFVT6bId8UGrmFz0A3EatBku27CR4SSiwHeuu6lyYsZ7hn36iA8GdfwAvmumCKUPIjfQFLYrpOIqidT5Ltij1Ayi3j72my7PiKinoyT70oOTMO1XMErPjbPRbfmfs52XUSACCWP+Pjsc5AmL4GejCv4mw+rz3nyXQlFaOCrbqAqjNiug7DoyYSC3zZ+64KnzMvQaQITjKsqmxptIEa+i2jYkyl5hNIjGvJkxncxPfNxio/4N1zBbfWvQMApOuI1zCzNfEAo+ec3XH2UPEfnu4j/idByuI5nn40UH3H59y4q+fj/aZ4lOt9FNOTJyHcRdSO0XHj9sw/cRhESDXky8l3EiuFKsv9YgYYpQqIhT8aV/AX5LqIhWM1tE7XK1yg+giAIgiAIgiAIgiAIgiAIgiAIgnASxz8AVyWhryNbPqAAAAAASUVORK5CYII=" parent="_Hx0DVdfl_cADfPcGA3N-10" vertex="1">
          <mxGeometry x="30" y="34" width="60" height="60" as="geometry" />
        </mxCell>
        <mxCell id="_Hx0DVdfl_cADfPcGA3N-3" value="" style="sketch=0;html=1;dashed=0;whitespace=wrap;fillColor=#2875E2;strokeColor=#ffffff;points=[[0.005,0.63,0],[0.1,0.2,0],[0.9,0.2,0],[0.5,0,0],[0.995,0.63,0],[0.72,0.99,0],[0.5,1,0],[0.28,0.99,0]];verticalLabelPosition=bottom;align=center;verticalAlign=top;shape=mxgraph.kubernetes.icon;prIcon=api" parent="_Hx0DVdfl_cADfPcGA3N-10" vertex="1">
          <mxGeometry x="138" y="40" width="50" height="48" as="geometry" />
        </mxCell>
        <mxCell id="_Hx0DVdfl_cADfPcGA3N-6" value="Entery Point" style="text;html=1;strokeColor=none;fillColor=none;align=center;verticalAlign=middle;whiteSpace=wrap;rounded=0;fontSize=19;" parent="_Hx0DVdfl_cADfPcGA3N-10" vertex="1">
          <mxGeometry width="220" height="30" as="geometry" />
        </mxCell>
        <mxCell id="_Hx0DVdfl_cADfPcGA3N-7" value="Webstranica" style="text;html=1;strokeColor=none;fillColor=none;align=center;verticalAlign=middle;whiteSpace=wrap;rounded=0;" parent="_Hx0DVdfl_cADfPcGA3N-10" vertex="1">
          <mxGeometry x="30" y="87" width="60" height="30" as="geometry" />
        </mxCell>
        <mxCell id="_Hx0DVdfl_cADfPcGA3N-8" value="API&lt;br&gt;" style="text;html=1;strokeColor=none;fillColor=none;align=center;verticalAlign=middle;whiteSpace=wrap;rounded=0;" parent="_Hx0DVdfl_cADfPcGA3N-10" vertex="1">
          <mxGeometry x="133" y="88" width="60" height="30" as="geometry" />
        </mxCell>
        <mxCell id="_Hx0DVdfl_cADfPcGA3N-22" value="" style="group" parent="1" vertex="1" connectable="0">
          <mxGeometry x="97" y="265" width="66" height="90" as="geometry" />
        </mxCell>
        <mxCell id="_Hx0DVdfl_cADfPcGA3N-11" value="" style="shape=image;verticalLabelPosition=bottom;verticalAlign=middle;imageAspect=0;image=data:image/png,iVBORw0KGgoAAAANSUhEUgAAAGAAAABgCAYAAADimHc4AAAACXBIWXMAAAsTAAALEwEAmpwYAAAOvElEQVR4nO1cDVATZxr+0PpTtWrVcmYDCMluwnm9uRt7058ZE8TRWrX1euNZW6+2Bdv6g4oCuwEE/EdgU6f22l7Pem2vaFX8r9fqFVBQRCugqIAYEEgAQQEF+U+Q72YDwRA3yW52N9jevjPPMAPk2/d9nv2eb/fdLwuAGGKIIYYYYoghhhhiiCGGGGKIYSdCAyaNjZ6GnM5dgUaWhftOEonqCd0qdHTJWuydzTOkeyPUyEtAqCACkCBCjUCNGqlLW+JbYCDQVD2OLihYP3ko+D8MfaT8OQOB/vNyiKw0OlBSQnFDqCXbBTsgrkJ+7DmIGd2fvuaTW45j3QYcu0slUqnB/gB+5VER7S/R46hGj2MlBgKDR9/2vUyokFYLL7hKUgkA8BDEfnC1pNNKADPipiO6a6tlTVQyZuBYrh5HQw1rJ48Dv5KAC8BgfQQ2w0BgKXocNVF1lobJTdo53ldt+aAgiA1Z7McOmk+861vaJ0KPEO3mhCOwGVCIM8INUR6l8DcQWIKewG5b15azXNYQFSCpss+HADZkYz+0+HiO9/WycCsReqEnMJ0exzb8EhZu3Sp0tD4Ce4da32jqgClvTSrB1RKjIx54tyF79kOHmECkOi9E3mabvLkAHHvwuC7c+t4FVY+jzXS5F4eh3YmzpaVMOODdhpzYD90U7Di8yPcWXSFWFnV3oBdu2wXVHs4tkzVGqyX1LDnY7lb7ocNHc7zKS8IciEC4f+GmW1DtoYLA4J43fKoIFdLFtnbebIiN/dBh3TRp3c/L5NSCzESIdqEWbnsLqj0UrkG741+WOlho3WRD7O2HBiqka+/CSQ16nIEIRA/aEwfnmrQA8gEjCZoMBNrN9NgZ7/u1RgUg9znXzYcNuWo/dEh6xau2eA3KiISGTRN4E6A1fvhlJseswDH47V99aqmbTD7q5cWGCBVyhi8BKERPQ+6f/dDPofcaCAxWaWSdRi3o5EOA27GSW04tJ1QO42dK6/islVBJ7q0HYBC3GaBGtvGaVA+6v5nv00SdcY5taGgBV/I7SY/mSsLxrEsP9muLDHjYTuALlHtwIt8swFTkVQEEMGPry9LGgtVyu8TUbZhQzlWAlvgROnvjl0Vg8Jv5Pg1C1YerkBjOAkRO9XkaVyMPhEoychrSnhbs10VrQ5FyagE1chHgTgzSQjd2/ko53DxDek+ouswCqKWBnAUwzwIVUiRkooQagTtf92mja2O0Jgy9ycF+Wuns5+R7fkZNAOLypTXDs9+0PuCZUbwIQKiRL4UWgFAj1BnZcmllf0u6E+fZ5KoAzVtHVluPVRqOwX/82ZuHy0smZz+SC/iKCBXynjuSJnoe9piOLfbt7mdDWmByRYDaGOSBZZycFXK4YbqU94XWwQzYwZsAkQFeqLsSJ3rx+TzvDksboy1+WLUL9tNO2Q/VwTy2eJJJo5awbidwwlTkTcBnECqkxt0ibJiOdFxcLod1sZ6sZ0DzllGNxWtRuGOuV7u786YQpkK8+Rbg8EAUQqiR7mOLvaFR6/GAjQCFYRNhbCDSMSA5qyRVgO/A1Uj4AAkAk9+YBNu3DWF1OXpmqQ/UBPDTUmAPyT7eBSACpC8ORDH73pzUsw4kDr3LWAASQAOBwuylMhgVINw9jAMBVvMuwIfPPTcEV/N/u07YgUaNwOOLffsuIVu2PlnPZgG2vvqJDWTfz+cCPGDin4AQwXdjjrCDyGkITF/i1+9+oHnzqEamAnQkDm6yvevdON1NIqiQFupkFUQAgRpz0Brrpknh2aWyR+5eGzeNaWcqQHvCkDrbzxeEyuHWmVLh7UglOSUI+UI35gjzHiMp/HkFfXOuYeP4bqYCtG4bXks3BnVZmjTLS1ARcJVki2ACCNmY2zhDCi/btCGsUb/ek/k9QPxIu/3/knAMbp/jJdjVEa6WzgFChhCNufhZXrAw1HHPvi5uImMBmjaPdvgAhmr6fTrPRwgBute+6CXsxgK+G3Pa2d7wxlrnjylvx0gZC3Bv41haC7JGBY7Cr+fzKwKuRgqA0MFnY+6TV71gaTizZ8Q10T6MBaiPm/DIIkwHqk/03UL+RMBVyE7BBcDVUoxrojvmed7KWDoRVkQ4J8mC6ihfxgLciZvYyHRcClnLEPjVgglVnO+cA5Ag4I5wpTGXONvTcCZkRGZTvMdVqq9THdVzh8sUVFuaqQC16xBm+5B6QXVN2xOfMHWQoEYXNTRz14JxV10RI3IqonCXAIwac9tme1ZaSO/v0eNYkW/ohZEEjBpyt6J8+p4DMMWdWEn/mzkSVLMSQ4XUCfK9ALaNuYRZnlV9ZzoJHrl270h4osPZLgWDHXQmDepgIkB1ZP+7aKZojh9Buw2GiRi4GjkK3BW2jTlnpFvjdiziEjkGaptKwpA2JgJUalwTmBLOSHo43ItkXwwJ4TYB1k+ePDThFc+SrJUj0poTPPKdkd53g7R1xD1XyTdQHdGEYU7bEUYtoN0azxR3N45j3PLoSAK3bkQOPbtz/vgiTeBEtdsEgCTwZLtdhOpQVke5Zg2GPosY6fTJmJH0qOFyDMoeOxMH17GprRevu00AIwnC2SbYsGE8o13JBgdo2jLa6XGM5CC7G7GYomYd0s50VlvNPPetASYtuMJWgJqosZU5Qf7ducH+0FXc2zSy1NlxmrYMu87lGBRK1iDX2dZH7dyASWCi4OQbSfCCC9PTjDsxYzgR0xI/5DwDC7qUG6Q0uXqMigj2GwCsRAgTXAATCb5wNUGuInQkDnK6S65LC67lLVHccpF8l+sygwTC9oLgR+BJIwnucUrSVRGWKO6bSOB8lxwJyq8slV93O/mWWbAdCPM4koouEizmI0lnIpxcpIQhKhSuVKN9v8v/AK1gMm6nFjQWrfS5avnc9rkKOG+KHH43XyE4+b34TDABjCQ4xWOi0FaEH97qIV4h94N+fn7mn6l/U5r/VrB8UjGjM5AE3WXhvzHPgJxgf6h+VmYei8Irf5TBr/+iEJJ8ah1opJyCd/LbSeBn1DLrxbAV4fBCJXz3JRTKZT1EWSN8Ws8s0K2R6JiOWRM9tob6zBfzFI+MZxGC+hvf5FvQRQJ+tyVSYSLBJiGSNWkBLI0ZDj+ePxHOneILZTZk/V4hg1nv+sMqzfgapuPd3TiiixKAItqW/Bcm+8GImd4wI2SMILX0zsKTvJIP14NBRhIYhErY5ESMDTNRWBf7FOPLw9ZtQ2DyfIVbSe8ngBY8gFrA395QkxbMckfiJhvoooZD8nUJfPslP9i4eTiLM9ADhgbKYNwcKcwNG+X2vHtFiOZNACMJ9g1EESYrdAqw/ggMHYQ8PB+AH4FxRi1g3CEUEPWM/o9lD0dIGLVgKvezXwtWPRbFkIDplzR4+W4xLyDBvzgLYCLBpcekmHojs7OuZcBzfXjSNMNPAbcv6hkIrNDVtm7JGqw6N9jffEnoCPVxz5w2kqDN2ZUFIwFIwGgbe3P8iIycIGWts9wKQxRFLre2caydegEUJwGoN11x6a1fW6boawvYQVcFgXXVrpNe6yRBA2d/J0GtE4G6GjY9fYbKLS9Y6bBndOl95XUutetx9BDg6TUvridBYDB3iVLnoNA6y/9WR/vc7CRBlV0Ck8BtBgIYHNlTfZznRcvxLi3xz7GXV06wf0NZuILV9hYa8HNHzMWGKJRHYE25Qf73aYsNUvZ7W1V1pN9tI+lB+0DESIIiBvZC+9DGqAUNt9chV62Plf+BMssO+d261VgZJ/L5sB++bIiCbrWiiK7YvCXKR18lo5G1dCQOvmhLYpcWOH+FDY1IxiQPQ1WUd7ntca4sVWbQ5XRtuSKXa7282A9fNmTB1Q/9c22Lvfy+Mpv+DJKbWrcNO2ND5jUGAuT3J39QYWWkH+1e0YIVChoBlCV66mW03OvltyHH1YYoVESg1KPCcuuC85cqM+2eRRqsu2nLyEwLmcTc8TfoupvWmPs8crM9ycP8/x2Jgy8YCBntWxApFK2ysaAgZevNMIzTrgre7YdPG6Jwcy1WmRvs32YpumC5/2lnn7m7cdw58o2nLzsj34J5L0jyW7YOzawk5EZH4+pCFf1m5I2VWN8C/djYD982ZD7zQhQXLEUXhSgczABlV9kni/KKTx/Nlslk95kKQOHI7q8KSw4kZVTETGmwN37pGvTGwydu/px93wr8Pw/gy4YsuPRBz3pQvFJx3vZvFVvUFTcOfZxRfPFc9fXcCzA3M50x8Rbs+uyTO9Rni3IudFACUkLqNYp+3l4RobhtvhAIVt6qwDG7VjXg9sO3DfVMU0VjTpCiWheqyDf/TuPfWfblyuzirJ/yinLOd1PkWfDDwX2sBdgSF1NjPYZZjItny8yzInZKvVkAAuvKCVZ2lqzh78QSxH6EsCEKJaHYVV2cKlt3fOepoovZdbaEWfDV539nLcCqZUtr7Y3XMysOXyjbsehKYYgync+aBLMffm0IrTDg6A69RjE1L+3H1/IyUovtkUUhfkPMA7YCvLlgvtmC7OFa9pl7eadTtTWbn/czv7WXQLP0BMfLTyHth7sNPSTd9q246UdTlJnHUk7nnz3VSEdW6PJlHWwFmDE98C7dWAUXzpmy/nMkL/NgykLb2qrC5N5cxBDUflyyIRwtt0e6bWQd3fVU+v7k4xlH9xuunst8YE1a1o9HWtNSdkM2OH14Xz8xC38+B7NPHDOkHdxT/NPef//WWZ0uiiGs/TCzIbTMQjrbcSGEHmn792jSUpK7zh4/VH/tfFaPAD8caXJBAPMMKMrJhhdTTzSlHdjdlpqS/H1qSsoYtnkxEsMd9mPfhlwnnS7SU5LnpaXspkg3nT/5fdvZ7w81shXg1KF99y6mnehKP7CnnRI0NSU5khIYcIxKAvWiE8Mt9mMJPSH/HTULzEKEy54V4hg/HdyDpabsLmRL/KNIbkg/kPyyEDmaZwaBrjHg2Dm32Y87I+vorqfS9icfcpX81JTd+akH98gGuo5fdMC+dWH3A1bk70/e+99vvx050PmLIYYYYoghhhhiiCGGGGKIIYYYYoghBuiN/wEKAEOh5b9WEwAAAABJRU5ErkJggg==;align=right;" parent="_Hx0DVdfl_cADfPcGA3N-22" vertex="1">
          <mxGeometry width="66" height="66" as="geometry" />
        </mxCell>
        <mxCell id="_Hx0DVdfl_cADfPcGA3N-20" value="&lt;span style=&quot;color: rgb(0, 0, 0); font-family: Helvetica; font-size: 12px; font-style: normal; font-variant-ligatures: normal; font-variant-caps: normal; font-weight: 400; letter-spacing: normal; orphans: 2; text-indent: 0px; text-transform: none; widows: 2; word-spacing: 0px; -webkit-text-stroke-width: 0px; background-color: rgb(251, 251, 251); text-decoration-thickness: initial; text-decoration-style: initial; text-decoration-color: initial; float: none; display: inline !important;&quot;&gt;Wallet&lt;/span&gt;" style="text;whiteSpace=wrap;html=1;verticalAlign=middle;align=right;" parent="_Hx0DVdfl_cADfPcGA3N-22" vertex="1">
          <mxGeometry x="13" y="66" width="40" height="24" as="geometry" />
        </mxCell>
        <mxCell id="_Hx0DVdfl_cADfPcGA3N-26" value="Autentifikacija" style="text;html=1;strokeColor=none;fillColor=none;align=center;verticalAlign=middle;whiteSpace=wrap;rounded=0;fontSize=19;" parent="1" vertex="1">
          <mxGeometry x="70" y="220" width="120" height="30" as="geometry" />
        </mxCell>
        <mxCell id="_Hx0DVdfl_cADfPcGA3N-27" value="" style="edgeStyle=orthogonalEdgeStyle;rounded=0;orthogonalLoop=1;jettySize=auto;html=1;" parent="1" source="_Hx0DVdfl_cADfPcGA3N-5" target="_Hx0DVdfl_cADfPcGA3N-26" edge="1">
          <mxGeometry relative="1" as="geometry" />
        </mxCell>
        <mxCell id="_Hx0DVdfl_cADfPcGA3N-30" value="" style="group" parent="1" vertex="1" connectable="0">
          <mxGeometry x="675" y="520" width="60" height="98" as="geometry" />
        </mxCell>
        <mxCell id="jGMnsHMGLgrMGACoU0F0-6" value="" style="sketch=0;outlineConnect=0;fontColor=#232F3E;gradientColor=none;fillColor=#8C4FFF;strokeColor=none;dashed=0;verticalLabelPosition=bottom;verticalAlign=top;align=center;html=1;fontSize=12;fontStyle=0;aspect=fixed;pointerEvents=1;shape=mxgraph.aws4.redshift_query_editor_v20_light;container=0;" parent="_Hx0DVdfl_cADfPcGA3N-30" vertex="1">
          <mxGeometry x="2" width="58" height="58" as="geometry" />
        </mxCell>
        <mxCell id="_Hx0DVdfl_cADfPcGA3N-28" value="NoSQL" style="text;whiteSpace=wrap;html=1;container=0;align=center;" parent="_Hx0DVdfl_cADfPcGA3N-30" vertex="1">
          <mxGeometry y="58" width="59" height="40" as="geometry" />
        </mxCell>
        <mxCell id="_Hx0DVdfl_cADfPcGA3N-35" value="" style="group" parent="1" vertex="1" connectable="0">
          <mxGeometry x="660" y="390" width="90" height="106" as="geometry" />
        </mxCell>
        <mxCell id="_Hx0DVdfl_cADfPcGA3N-1" value="" style="shape=image;verticalLabelPosition=bottom;verticalAlign=top;imageAspect=0;aspect=fixed;image=data:image/png,iVBORw0KGgoAAAANSUhEUgAAAGAAAABgCAYAAADimHc4AAAACXBIWXMAAAsTAAALEwEAmpwYAAAOr0lEQVR4nO2cCVBVV5rH32Smtbuqx16mamacNrEVFAUB4bE9VkWI6BPZfCr7jgJRJp24xCVcEtwji6DxuYs7HUOUuEUT47h2TydjZppuu7rbmqmYTs3UZAxtEjEV+U2dx7v3XeC9x2OxK8D9V/2rvnu+//ed77zz7jn3HhadToMGDRo0aNCgQYMGDa7i6VJix5RyaMxzNAjb5UAN/cfTpWQ/U0r7M6VgZfvTxWRpn+1fAM8UMXpcMffHlYCaPy2m1X0JY7RJeMIYv5gmt2Kwy8W8rU3AE4T7YlImLAanLCJZm4QngPFF/GBiEZ94LALBiYv40q5dxCdCq03CAGNyIWbPIhCcXMinnkXUKNdFVHkWck91vVObgAHElCIMUwp4PKUQBL3ySfYqRFKuC5G8CkmRr6cU0u5ZRLg2CQMA9yWM9C6gxacABL0LOjZa73wkpS0fSbT5FNAkt/kUcGdsNt/VJqGf8M2jYmo+CPrm0+pd0PGo6ZuPpGq3TIC+iNFT87nftV1DHxGQh4d/Lm3+eSCoz6VY9vnlIsntwpbb/fMokdv983jkW4CXNgF9QTlPBeZwNTAXLMzhlmiT3YG5SIpPNQE9xWlwEcE5lATngpWPArM6f5ODc5FUfqnrnROUQ5vKr9w5GlxARDqjQ3K4b8gBC7O7r+Wizak/hwrFn0NrkHXv0OACQrNoCssGC7O4E2XnaSYsG0nR2JkATxMjQrNoUeXRjilc+vZnkxKZBVa2R2Xaf56PyESSdcK2p4nKJiQyk8dKvkztmMIp4tIZFZXBvWmZIBiV4fiNNioTSdE5mACrzizrpmXwaVQ2P3RexTBGdDrm6AywMJ1Pw9P4kSPt9HQkWStsZ5M6PZ17Ku3rT2wAgxnR6UTEpNMekw4WpjlfLmakI8laYTvVZpCiaNN4HJOqHVN0QlwcI2NTaXk2DQRj03reMGNTkRR9as9vvLFpNKn0djf2YYu4hbwyKxUsXEhrXHrPj4yzUpGUGBcmYGY6o+MWcr83McMCM014GBfSZlwIFi5w7aXJuABJFePShzk7lRI5ZvZCHsUvHObHFOXlPBW/gKvxC0BwznxuiTZXYuMXIMlxwn7S/Q1JJMynJGE+CM6d37tvZIIJSY4Vtqtxc014JMynTY5NNA3TY4qkJEYnm7ifbALBpF58iJZ4E1I/YiuU2Hm0JiUNw2OKefNomjcPBFNSuJPdy6eSlBQkVXyvJsBkYkRKCi2q+OF1TDE/mZT5KSBoSuaxydT753JTCpKSo5cTYKkhiRDRt5IjiSTdcEB6OqMWJnFvYTIILkju25vpgiQkJUdS3x4pFySzU1XHn7IThsExRVoS5rQkEExN7P2g0xLRW3Ik8kCV52FaEo1pycT0Jld6HKNSE7mn5Eka4scU6QlEZCbSnpkIgllzXbvtxQeVkUhRRiIfyrGOmJHAbzISWJFv4seu5M5MJFkV+zgzcYgeUyyJY2RWAi3ZCSCYldDzxpediD57LubsuTyQ41xlVgIPsxJozJzb812RNZcmVdyd7KgheEyRE09F7lywsjXLyE/s6YpM/CBnDiU5c7mt0ivMT4Glq+G5ZbY2YYs24bMXI3KJnCK3vT5FLaImJSZ+iB1TFM1hUl48bfnxYGW3l58CI/q8OZjz5vBApVNYnAPLtkDleVh/BZZtsPmELdoq34GVdVCS3z3eyof5c2jMtXNX5M2hRNHN4VFB/BA5phCv+oVGrhXNASuV1/8lcYwqMlJUaORDlV/hokT42QtQcRC2vN+ZK9fbdMLu6n/1BCxbDYuTuue18jdFRlbkP9uxV4iaioxctVfnoMbiWZQuNoKFs3lUEo9XsRH9IiPmRbN5oPhUXJoFL2+Creeg5rJ9rlln0wvbka7qAki18M953fux8uEiI43FRmLEnbrISJvKN7iPKRYZ+UmxkdYSI1jZUjyb26prZJYmwqoV8NoR2P5ezyxfZ4sVtisxIrfoQ/RlrwZrbS2qts/FGHSDFaWzaXpuNjjjixlQuRF2nAHzu67zlVdtOYTdm9jXz8GGangxx3ltVjbrBiPKZmJYOgvssSye9oplUH8I9l3qG9e/assn7L7mETVIyztqclTvkjhCdIMNP4tj9fNxoOZLGTyu2gIHmuHQO/3j5gpbXmH3N9+Bt6F6C6zKoL1r3c/P5CXdYMMLz5L7wkyQuTYdDjbC8QsDwyrJllvYA5X3wImOWtW1i7HoBhueD+F7y2JpWfYsyFwxC6pWQeMpOHm+f6wtt+UVdn/ziZqqV8HyOFtewRdj+bUYi24wYqWRHy2PYf/yGB6viAWZaxJg92Y4dRZOn+sbt79syyfsvuYRNYhaRE3qGq017xNj0A12rIrG/6UZXFkVA2q+Oh+ObodzZ3vPnWtteYTdlxzHzLA+tXNNgi/F8IuVMzDohhpWRRO/Jpq7a2aAmltz4VQDXDrjOvesscULuzexzYdhW3HnGgRXz+DjNTPEX9zzV7qhinITI16OpmztdFpfjgaZUizsfhEunYT33+6Z+1fbYoXtSsy7TR1a0Ze675en88Xa6UiDdq1XozyKkPLp3JWmcb3CyW1cGcFoaTrm8ml8I00HmetmwbEKuH4arjc7ZsMqW4ywnWmvNcPPN8F6oy1GsHw67eXTaCyP4RlHdYoxiLGIMVVMI1j3bccrUex5ZRoIVkyjvWIa+9dF8w+O9OXR+FdEcUWOkbk1Gc7UwC9P2efRlTatsB3pztdDtalzbkttUfyiItLxF0TULGoXY1DF7dJ927E+ktmVUbSviwKFkdyvjGRpeRR/4yiuMpL4dVHc7RQXBeZMuLoX/u2tzmxcadMIu6v/+gHYV9g5l2BlJB9XRpKFg3Ve1ChqFTV3iouivTKSWbrBgPUR1GyIhG6M4LcbIx3/b59yT0ZsiKRsQySt6riN0+D4Urh9An7d1ME3l9v8wpbbbzd2XG+a3rnv9RF8sSECaauTdX5dJBEbIvnIXu3rI6nSDRaY9XxnYzg3NkWAPW6MoPm1CJ52tj9sjMC8MZxv1HHVsXBuLdw5CaeW29qFLdouVULtzG59tW+MoHFjmON13tpfg9DarTmcX4ovh24wQQx4czifbQkHe9wcxhdbwpCcDWxTKAGbw7naNXZXIhzOsl0LW7R16yOcqyKHo/xiuXktjLLN4bQ6qfP+lgjG6QYjtoaRtDWM9qowsPIrlY2FobRUGYh2lqcqjPiqUO52i3XArWF8vDXM8TpvyWkg2tJ393ilRlF7dTiJusGMmlBqa0JBsDqUr2sMrKwO5T/kthqbr7newFhHecSdUmOgrDqU1q6xqhxfVhucr/N1ofxTdSgN1aG0d4o38LvqUFbXhPJI1V6tG+wQ+0FtCDe2GcDCEP5rh4G/rzNQts1Aq9JugFoDX9YakGrjGOkoX1UEo7eFYK4N4RtVXHutgcYaJ+u8qMPSZwh/Vve5zcAXok9RU62Bu6o6B9+67wjig6kP5rP6EBCsC+a0WB7qA/nHuhAa6kJol31W/+/rg5ntLOe2IHzrglknKOwetNH1IbSo+7AwmObtAR0PA3UhnFS1398WNEjXfUfYHkL89mDadwSD4PYQlsi+HUFE7AjiI9mnaIJp7s8HURvEmO3BNNjJe1v0qdQWTFkX/9D8t2fmILaZg8DKr3cF2X7UV67jqdeDyDIH8b8qDeZAvjIHIu3vxW+rNXoywhxMmTmQB+pcO4O4L9rVL4Q7AwkwB9GmaAKp0Q1ViHV4dwA3dweClX8w6zv/ttruEH68K4Da3YE8VunYFcgf9wRh6rGPAGJ2B/LbLrHtuwJp2B3c+Uhkvy8/FHkVXQD/WuvueP8ZEtjjx9i9ej7bGwCCewL4uT3dbn/0ewK4JesUvZ6L+/VM6qo/oMdtTwDNXfV79Xy4L4BQe33s1XNSVcf9vQGM1w0H7NUzb38AqFhqTyeWpQN6svYH8D9d9F/vC6C23pPvN4bwvf16pH16Hqo1+wL4v30BlDWa+Gt7uffrWdolZ4puOOGgP3UNerCy7YA/eofaQP7uoB5zg57HqhgO6vlPQXWb0AitiHGYz48A0acS48823XDDWXdGHvLnV4f9QfCQH39o7LIfdMUhPf6H/bkux3SlyHfI3/nv8Ig+DvnxR1Xc7d5s8EMKx/S4HZnK50f9QPCIn/39QA3x/nBkKllH/fhvVdxnR6Y6Xm7UOOLHUTnuqB9/PubDRN1wxtGpzDs+FVQscSXumC+SHCNsV2KO+7FE3deJqaT2ewBDASd82N7oC4InfGk77o1/jzG+SKqYHifg+FR8G315KMc0+lA3YAMYCvvBGz58cNIHBN/w6Xk/OOmNJOuF7Uz7lgd/+4Y3v1P0Pnwknp4GfCCDGW964dY0hc+bvMHKRmf6Jm8kldbpBLw5hSMq7YO3vPEY8AEMBZzyxnRqCij0cvwHEqe8kFQ6hxNwagrPqXM2eZP2xAYwFHDakx3NXiB42ou205Ps7wfNXkiyTtj2NKem4NPsyVcqXf0TH8BQ2A/OePLBWU8QPDOZ3591Z1RX3ZnJSCpNtwm47Mn3z3hyR6X5qHGMtu67hPOeuJ+bzOfnJ4OFkzjRVXNuMpLsF7Yd/xHFP4kH5zy0db9XeMcD0zuTQOYFDxap/Rc8kFS+ThNwYRKl6tjzHqT3rncNFlycyOuXPEDwogcPL7rj1+HR6S56IKl8ygRcmojPRQ++kn2XPNgu+zT0YT94byIfvDcRBN+daNsP3p2ApLRP6JgAse6/N4E7qvZ/v6Gt+/3DZTfc359A65UJYKVlP7gyAUnVZpmA9ydwWGlz58Hlid1/bqChD7jqxvyr7qDQjaKrbkiqa+lf3ClRa665a+v+gOKaGzuvu4GVD6+58aZyPZ63RJt8LbTaN32AcXks3705jg9vjoceqK37Two33HC/OY7WW+PBLsfx4PpYbd1/orjxU+Y7moCb48h4sr1rsODmOHba+fCH9v97+zbhV3q+c2scG2+O50+3xvOJsC87+esbDRo0aNCgQYMGDRo06NT4f5jfH2ptTsD3AAAAAElFTkSuQmCC;container=1;" parent="_Hx0DVdfl_cADfPcGA3N-35" vertex="1">
          <mxGeometry x="2" width="76" height="76" as="geometry">
            <mxRectangle x="2" width="50" height="40" as="alternateBounds" />
          </mxGeometry>
        </mxCell>
        <mxCell id="_Hx0DVdfl_cADfPcGA3N-34" value="&lt;span style=&quot;color: rgb(0, 0, 0); font-family: Helvetica; font-size: 12px; font-style: normal; font-variant-ligatures: normal; font-variant-caps: normal; font-weight: 400; letter-spacing: normal; orphans: 2; text-align: center; text-indent: 0px; text-transform: none; widows: 2; word-spacing: 0px; -webkit-text-stroke-width: 0px; background-color: rgb(251, 251, 251); text-decoration-thickness: initial; text-decoration-style: initial; text-decoration-color: initial; float: none; display: inline !important;&quot;&gt;Pametni ugovor&lt;/span&gt;" style="text;whiteSpace=wrap;html=1;" parent="_Hx0DVdfl_cADfPcGA3N-35" vertex="1">
          <mxGeometry y="66" width="90" height="40" as="geometry" />
        </mxCell>
        <mxCell id="_Hx0DVdfl_cADfPcGA3N-36" value="" style="group" parent="1" vertex="1" connectable="0">
          <mxGeometry x="490" y="316" width="80" height="100" as="geometry" />
        </mxCell>
        <mxCell id="_Hx0DVdfl_cADfPcGA3N-31" value="" style="image;aspect=fixed;html=1;points=[];align=center;fontSize=12;image=img/lib/azure2/compute/Function_Apps.svg;" parent="_Hx0DVdfl_cADfPcGA3N-36" vertex="1">
          <mxGeometry x="6" width="68" height="60" as="geometry" />
        </mxCell>
        <mxCell id="_Hx0DVdfl_cADfPcGA3N-32" value="&lt;span style=&quot;color: rgb(0, 0, 0); font-family: Helvetica; font-size: 12px; font-style: normal; font-variant-ligatures: normal; font-variant-caps: normal; font-weight: 400; letter-spacing: normal; orphans: 2; text-indent: 0px; text-transform: none; widows: 2; word-spacing: 0px; -webkit-text-stroke-width: 0px; background-color: rgb(251, 251, 251); text-decoration-thickness: initial; text-decoration-style: initial; text-decoration-color: initial; float: none; display: inline !important;&quot;&gt;Unos&lt;/span&gt;" style="text;whiteSpace=wrap;html=1;align=center;" parent="_Hx0DVdfl_cADfPcGA3N-36" vertex="1">
          <mxGeometry y="60" width="80" height="40" as="geometry" />
        </mxCell>
        <mxCell id="_Hx0DVdfl_cADfPcGA3N-40" value="" style="group" parent="1" vertex="1" connectable="0">
          <mxGeometry x="490" y="410" width="80" height="100" as="geometry" />
        </mxCell>
        <mxCell id="_Hx0DVdfl_cADfPcGA3N-41" value="" style="image;aspect=fixed;html=1;points=[];align=center;fontSize=12;image=img/lib/azure2/compute/Function_Apps.svg;" parent="_Hx0DVdfl_cADfPcGA3N-40" vertex="1">
          <mxGeometry x="6" width="68" height="60" as="geometry" />
        </mxCell>
        <mxCell id="_Hx0DVdfl_cADfPcGA3N-42" value="&lt;span style=&quot;color: rgb(0, 0, 0); font-family: Helvetica; font-size: 12px; font-style: normal; font-variant-ligatures: normal; font-variant-caps: normal; font-weight: 400; letter-spacing: normal; orphans: 2; text-indent: 0px; text-transform: none; widows: 2; word-spacing: 0px; -webkit-text-stroke-width: 0px; background-color: rgb(251, 251, 251); text-decoration-thickness: initial; text-decoration-style: initial; text-decoration-color: initial; float: none; display: inline !important;&quot;&gt;Ispis&lt;/span&gt;" style="text;whiteSpace=wrap;html=1;align=center;" parent="_Hx0DVdfl_cADfPcGA3N-40" vertex="1">
          <mxGeometry y="60" width="80" height="40" as="geometry" />
        </mxCell>
        <mxCell id="_Hx0DVdfl_cADfPcGA3N-43" value="" style="group" parent="1" vertex="1" connectable="0">
          <mxGeometry x="500" y="510" width="80" height="100" as="geometry" />
        </mxCell>
        <mxCell id="_Hx0DVdfl_cADfPcGA3N-44" value="" style="image;aspect=fixed;html=1;points=[];align=center;fontSize=12;image=img/lib/azure2/compute/Function_Apps.svg;" parent="_Hx0DVdfl_cADfPcGA3N-43" vertex="1">
          <mxGeometry x="-10" width="68" height="60" as="geometry" />
        </mxCell>
        <mxCell id="_Hx0DVdfl_cADfPcGA3N-45" value="&lt;span style=&quot;color: rgb(0, 0, 0); font-family: Helvetica; font-size: 12px; font-style: normal; font-variant-ligatures: normal; font-variant-caps: normal; font-weight: 400; letter-spacing: normal; orphans: 2; text-indent: 0px; text-transform: none; widows: 2; word-spacing: 0px; -webkit-text-stroke-width: 0px; background-color: rgb(251, 251, 251); text-decoration-thickness: initial; text-decoration-style: initial; text-decoration-color: initial; float: none; display: inline !important;&quot;&gt;Modifikacija&lt;/span&gt;" style="text;whiteSpace=wrap;html=1;align=left;" parent="_Hx0DVdfl_cADfPcGA3N-43" vertex="1">
          <mxGeometry y="60" width="80" height="40" as="geometry" />
        </mxCell>
        <mxCell id="_Hx0DVdfl_cADfPcGA3N-46" value="" style="group" parent="1" vertex="1" connectable="0">
          <mxGeometry x="490" y="610" width="80" height="100" as="geometry" />
        </mxCell>
        <mxCell id="_Hx0DVdfl_cADfPcGA3N-47" value="" style="image;aspect=fixed;html=1;points=[];align=center;fontSize=12;image=img/lib/azure2/compute/Function_Apps.svg;" parent="_Hx0DVdfl_cADfPcGA3N-46" vertex="1">
          <mxGeometry x="6" width="68" height="60" as="geometry" />
        </mxCell>
        <mxCell id="_Hx0DVdfl_cADfPcGA3N-48" value="&lt;span style=&quot;color: rgb(0, 0, 0); font-family: Helvetica; font-size: 12px; font-style: normal; font-variant-ligatures: normal; font-variant-caps: normal; font-weight: 400; letter-spacing: normal; orphans: 2; text-indent: 0px; text-transform: none; widows: 2; word-spacing: 0px; -webkit-text-stroke-width: 0px; background-color: rgb(251, 251, 251); text-decoration-thickness: initial; text-decoration-style: initial; text-decoration-color: initial; float: none; display: inline !important;&quot;&gt;Brisanje&lt;/span&gt;" style="text;whiteSpace=wrap;html=1;align=center;" parent="_Hx0DVdfl_cADfPcGA3N-46" vertex="1">
          <mxGeometry y="60" width="80" height="40" as="geometry" />
        </mxCell>
        <mxCell id="_Hx0DVdfl_cADfPcGA3N-49" style="edgeStyle=orthogonalEdgeStyle;rounded=0;orthogonalLoop=1;jettySize=auto;html=1;entryX=0;entryY=0.5;entryDx=0;entryDy=0;" parent="1" source="_Hx0DVdfl_cADfPcGA3N-31" target="_Hx0DVdfl_cADfPcGA3N-1" edge="1">
          <mxGeometry relative="1" as="geometry" />
        </mxCell>
        <mxCell id="_Hx0DVdfl_cADfPcGA3N-50" style="edgeStyle=orthogonalEdgeStyle;rounded=0;orthogonalLoop=1;jettySize=auto;html=1;entryX=0;entryY=0.5;entryDx=0;entryDy=0;" parent="1" source="_Hx0DVdfl_cADfPcGA3N-41" target="_Hx0DVdfl_cADfPcGA3N-1" edge="1">
          <mxGeometry relative="1" as="geometry" />
        </mxCell>
        <mxCell id="_Hx0DVdfl_cADfPcGA3N-57" style="edgeStyle=orthogonalEdgeStyle;rounded=0;orthogonalLoop=1;jettySize=auto;html=1;entryX=0;entryY=0.5;entryDx=0;entryDy=0;" parent="1" source="_Hx0DVdfl_cADfPcGA3N-44" target="_Hx0DVdfl_cADfPcGA3N-1" edge="1">
          <mxGeometry relative="1" as="geometry" />
        </mxCell>
        <mxCell id="_Hx0DVdfl_cADfPcGA3N-58" style="edgeStyle=orthogonalEdgeStyle;rounded=0;orthogonalLoop=1;jettySize=auto;html=1;entryX=0;entryY=0.5;entryDx=0;entryDy=0;" parent="1" source="_Hx0DVdfl_cADfPcGA3N-47" target="_Hx0DVdfl_cADfPcGA3N-1" edge="1">
          <mxGeometry relative="1" as="geometry" />
        </mxCell>
        <mxCell id="_Hx0DVdfl_cADfPcGA3N-59" value="" style="edgeStyle=elbowEdgeStyle;elbow=horizontal;endArrow=classic;html=1;curved=0;rounded=0;endSize=8;startSize=8;" parent="1" target="jGMnsHMGLgrMGACoU0F0-6" edge="1">
          <mxGeometry width="50" height="50" relative="1" as="geometry">
            <mxPoint x="610" y="540" as="sourcePoint" />
            <mxPoint x="500" y="570" as="targetPoint" />
            <Array as="points">
              <mxPoint x="630" y="540" />
              <mxPoint x="640" y="670" />
            </Array>
          </mxGeometry>
        </mxCell>
        <mxCell id="y2aHxJIaEHTyxnqD0GUX-4" value="" style="verticalLabelPosition=bottom;html=1;verticalAlign=top;align=center;strokeColor=none;fillColor=#00BEF2;shape=mxgraph.azure.mysql_database;" vertex="1" parent="1">
          <mxGeometry x="652.5" y="80" width="37.5" height="50" as="geometry" />
        </mxCell>
        <mxCell id="y2aHxJIaEHTyxnqD0GUX-6" style="edgeStyle=orthogonalEdgeStyle;rounded=0;orthogonalLoop=1;jettySize=auto;html=1;entryX=0.995;entryY=0.63;entryDx=0;entryDy=0;entryPerimeter=0;" edge="1" parent="1" source="y2aHxJIaEHTyxnqD0GUX-4" target="_Hx0DVdfl_cADfPcGA3N-2">
          <mxGeometry relative="1" as="geometry" />
        </mxCell>
        <mxCell id="y2aHxJIaEHTyxnqD0GUX-7" value="Prikazivanje podataka&lt;br&gt;sa&amp;nbsp; marketplace" style="edgeLabel;html=1;align=center;verticalAlign=middle;resizable=0;points=[];" vertex="1" connectable="0" parent="y2aHxJIaEHTyxnqD0GUX-6">
          <mxGeometry x="0.3234" y="1" relative="1" as="geometry">
            <mxPoint x="26" y="-4" as="offset" />
          </mxGeometry>
        </mxCell>
        <mxCell id="y2aHxJIaEHTyxnqD0GUX-8" style="edgeStyle=orthogonalEdgeStyle;rounded=0;orthogonalLoop=1;jettySize=auto;html=1;exitX=0.5;exitY=1;exitDx=0;exitDy=0;exitPerimeter=0;entryX=0.5;entryY=1;entryDx=0;entryDy=0;entryPerimeter=0;" edge="1" parent="1" source="_Hx0DVdfl_cADfPcGA3N-2" target="y2aHxJIaEHTyxnqD0GUX-4">
          <mxGeometry relative="1" as="geometry" />
        </mxCell>
        <mxCell id="y2aHxJIaEHTyxnqD0GUX-9" value="Unos novih marketplace&amp;nbsp;&lt;br&gt;listi" style="edgeLabel;html=1;align=center;verticalAlign=middle;resizable=0;points=[];" vertex="1" connectable="0" parent="y2aHxJIaEHTyxnqD0GUX-8">
          <mxGeometry x="-0.2197" y="2" relative="1" as="geometry">
            <mxPoint x="37" as="offset" />
          </mxGeometry>
        </mxCell>
        <mxCell id="y2aHxJIaEHTyxnqD0GUX-12" style="edgeStyle=orthogonalEdgeStyle;rounded=0;orthogonalLoop=1;jettySize=auto;html=1;" edge="1" parent="1" source="y2aHxJIaEHTyxnqD0GUX-10" target="_Hx0DVdfl_cADfPcGA3N-1">
          <mxGeometry relative="1" as="geometry" />
        </mxCell>
        <mxCell id="y2aHxJIaEHTyxnqD0GUX-13" value="Čeka event&lt;br&gt;sa Pametnog&lt;br&gt;egovora" style="edgeLabel;html=1;align=center;verticalAlign=middle;resizable=0;points=[];" vertex="1" connectable="0" parent="y2aHxJIaEHTyxnqD0GUX-12">
          <mxGeometry x="-0.5038" y="-2" relative="1" as="geometry">
            <mxPoint x="2" y="-12" as="offset" />
          </mxGeometry>
        </mxCell>
        <mxCell id="y2aHxJIaEHTyxnqD0GUX-10" value="" style="shape=image;verticalLabelPosition=bottom;verticalAlign=top;imageAspect=0;aspect=fixed;image=data:image/png,iVBORw0KGgoAAAANSUhEUgAAAEAAAABACAYAAACqaXHeAAAACXBIWXMAAAsTAAALEwEAmpwYAAAHUUlEQVR4nO1be4hUVRj/tZpWEEQvK7OI3kJgbTvn3HFro9TGnXNmtZpe9v4j/MMXhf9EMMXesSgoEiNQvHdXQWojigp7gBVhaSarFZFhFqyR5r0+M4VddzfOPNaZM+c+zsydaVf84MAw99xzvu93v+873znfd4ACJZCYSMAWUbDNFPxovuV+LxTPMMZISx6K5GQKvp2CD6saAd8m+mCMkJY8CSQm+nUufSlKTYghlSTgf1Lw3QRsdlTjastDcmri37mkLYiKUSH4yXFZX1TjastDwL8r/5N9LNQjhsTlFHy99GxTVIzKzEQ1rrY8BOyf0j9Fx+Jgt6JjSrnasCOjHwBNechpALikMny9QC2PFus7BUygrygPAfukQh4KvjCs0zDAukY7AAZYt5YTTOQCBrEuBr9AwE5QsIdHKwCCtzyPYWTh26YiPaHwYnJyPUFoBjuHgico+EvCxAjYzsqx2R8U7AsC/pqBVLoNHefVU/iKwG4q0hOESgi7EI4x3/i3FNwi4AMyCDGwR4OYIuAzCdg6AnZMQy2LTA4ImyXg97Shbby/8Px+FY8EvFshz4KRLx+WvCbwAoGCcQLWqyu0T9tFwJ9IIz0uLG8E/JHQAkYFwnSwKwj4p3rCsSECPhiy7/dxtE9ruPBhQCBg9xKwgz6+o7do3wbarxR+YWRgZJriSF1mIHk3AX+RgG/xAaGfILW44cIXyWNi8QWHFHZ8nILZBlgLNMkAu4GALc+PoQRjsOHCa3rc9cIkUCPlVyi2LuqVKSoQBhXMHAyzQuiSATZHZWIkp3nJeVHPF0gGOBMOTGLmmFDdoHczmeHxtukusk13p511d9imMz+TGW4Keq8Fs69TLakE/Fk0kgj4JArmSl/+GAFrDXrXWua02Ka7xc66w6XNMt3e7mX7jeC557RW+gXWX42fqZoIWI8k/BGC9hv93uledvgCK+u8YWedQVn4kyA4Q5bprlmT2XOx31hCWBkEEd2p4oTIiYC1Kuz+Aa/+QrW7TPcxy3RcL8EVQBywsu7inp5hT4GEx1cskfNRb6LgX0vIv+/Vd3XngVbbdLZ7fW3bdNeKlvut7ONu7TLdmNf4lUEX69MOc3WIINks214cc67WVXfLdH9Z3enOKPa3svtus0znB12zoOi4SV6O6xoLEPBVkuqvlvtYnfuet7Ou2s5N55Dw/mIV8F4ZnENq03AGbdNZWgkCsyVT+LIuwqeRHkfBHUkDbpH72Vl3wOsrrsrunRQ0j7/2OP1yfwOp2yWeBg3M9XWiVZGBjriE9K+qfn5qXDsAruLgJNNUyC+M8FaPQAwE7BlJ/V9X9fP18DWZgBcAOd6WS37grcgBoGBryydJPagNQBVOMCQAT0pmsDlyAAjYxnIAks1hAPDz7iGWwd4wAFDw6ZIG7KslVzccpsXArwoDgFBtEdQEqXaZ4FnnYDEQCgNAM9iFYfn2zEXSslxdcIsjdW4YAEb+f+XvS4Qj9PraXs4yHABPn6nDuzIXSTUBKD/RCQag1N7trPOjylRE5Kg7XmQAELDZmiBcUw0AIx5fYSrVjifWfR3hxRE9InCCd1TLcNT9DKRulgR1EDVRcKt0EgOpp6plOOp+IvCRYpRvEDVR8CUSym+HYbgW1VaZipo3trLugRCRdoLifE6VsVF49x1W1p0Z1E9+7hUcVXKWaZKz2Ab4Q6jTZmiPhHSFYFbW+V25zJnuR1bn/ik1LZemu0ueLwZ+p+TkBluRuAj1IAK+QppsQyUA7kyvoMfKOodt013itQqIZ7k+SgCdQ6Xhc5Eo2AcST5+jXhRH+zTFstJWxfnfDlUcEDY4kvgZCns8FwlRsA3ShBuFHar66mxyPIRXBkcFOqNyaWa/BWWSa6Y4mFGJuve5fFV7AdM9amedF3oyw57ne2JOWRvFrrBugpdSZaqK9QtnBB8KsxcoOsuVL7sjlV0qioHNEnNKPGzy0sTIqTm3+2J7ZRBakJwb9K7XXkD4BZWTk6kFyXm08iD0uDggRSMplv8KMiMD4v+gd4VZdGXdN23TOWHlmrvCK2AqJZE+l+dsWD4gfHJUpM6jzdQWyndeper5hv6vzPAJnx3XX1HNZYDdFVRu09D0OPUokCgtcxFVYLXMIUr3Ykje51cpIpfVhC3cqomoT1lK3ifwraKOR5UlbkPbWYXDywUihBZp9GbMvVRUccaRup4iNYOCLaXgn1Hwf32+uHj2uG7hVl2FR6j32Xt+ahymEfCvCJLXBvEUOQg0goIkVQ1R+MZ+FkVYIvoLy5s2CAnvOzbKQkndJKTI2WkKLnh4t7DjrBA8JAhrI7kzRCPwuBSzzqfgzxGwd1RzEfCfCPiHokwuX1abPrshpbKJkHdsol5u5LGjGVMPhITunaFTslye+NyxIWC7T4ULE6fvDBXo9J0haN4ZIqo7NmPOBALkoRp3hsbCxUlteRIh7wyV3bGJgE7mIqvM1XlQVfLQgDtDY/HytLY8U73vDOnfsRkFFFae/wDM7W9JHNm2awAAAABJRU5ErkJggg==" vertex="1" parent="1">
          <mxGeometry x="626" y="168" width="64" height="64" as="geometry" />
        </mxCell>
        <mxCell id="y2aHxJIaEHTyxnqD0GUX-16" style="edgeStyle=orthogonalEdgeStyle;rounded=0;orthogonalLoop=1;jettySize=auto;html=1;entryX=0.5;entryY=1;entryDx=0;entryDy=0;entryPerimeter=0;" edge="1" parent="1" source="y2aHxJIaEHTyxnqD0GUX-10" target="_Hx0DVdfl_cADfPcGA3N-2">
          <mxGeometry relative="1" as="geometry" />
        </mxCell>
      </root>
    </mxGraphModel>
  </diagram>
</mxfile>
